<?xml version="1.0" encoding="UTF-8" standalone="no"?>
<svg
   xmlns:dc="http://purl.org/dc/elements/1.1/"
   xmlns:cc="http://creativecommons.org/ns#"
   xmlns:rdf="http://www.w3.org/1999/02/22-rdf-syntax-ns#"
   xmlns:svg="http://www.w3.org/2000/svg"
   xmlns="http://www.w3.org/2000/svg"
   xml:space="preserve"
   enable-background="new 0 0 595 842"
   viewBox="0 0 167.922 172.424"
   height="1.9158223in"
   width="1.8658in"
   y="0px"
   x="0px"
   id="Layer_1"
   version="1.1"><metadata
     id="metadata4269"><rdf:RDF><cc:Work
         rdf:about=""><dc:format>image/svg+xml</dc:format><dc:type
           rdf:resource="http://purl.org/dc/dcmitype/StillImage" /><dc:title></dc:title></cc:Work></rdf:RDF></metadata><defs
     id="defs4267" /><g
     transform="translate(-213.676,-310.744)"
     id="g4257"><path
       d="m 223.001,390.026 c -0.211,-0.708 -0.325,-1.458 -0.325,-2.234 0,-0.47 0.042,-0.931 0.121,-1.378 0.651,-3.658 3.847,-6.434 7.691,-6.434 4.314,0 7.812,3.498 7.812,7.812 0,3.011 -1.704,5.624 -4.199,6.928 l 0,41.769 49.877,30 -1.208,7.679 -54.132,-32.559 c -1.126,-0.674 -1.752,-1.866 -1.753,-3.091 l -0.011,0 0,-43.798 c -1.85,-0.969 -3.266,-2.657 -3.873,-4.694 l 0,0 z m 149.273,0 c 0.211,-0.708 0.324,-1.458 0.324,-2.234 0,-0.47 -0.042,-0.931 -0.121,-1.378 -0.651,-3.658 -3.848,-6.434 -7.691,-6.434 -4.314,0 -7.812,3.498 -7.812,7.812 0,3.011 1.704,5.624 4.199,6.928 l 0,41.769 -49.878,29.999 1.207,7.68 53.888,-32.411 c 1.19,-0.591 2.009,-1.818 2.009,-3.238 l 0,-43.798 c 1.852,-0.97 3.268,-2.658 3.875,-4.695 l 0,0 z m -5.73,-3.613 c 0.298,0.38 0.477,0.858 0.477,1.378 0,1.234 -1.001,2.234 -2.234,2.234 l -0.021,0 0,0 c -1.225,-0.012 -2.214,-1.008 -2.214,-2.234 0,-1.234 1.001,-2.234 2.235,-2.234 0.712,0 1.349,0.335 1.757,0.856 l 0,0 z m -137.814,0 c -0.298,0.38 -0.476,0.858 -0.476,1.378 0,1.234 1,2.234 2.234,2.234 l 0.022,0 0,0 c 1.224,-0.012 2.212,-1.008 2.212,-2.234 0,-1.234 -1,-2.234 -2.234,-2.234 -0.713,0 -1.348,0.335 -1.758,0.856 z"
       id="path4259"
       style="clip-rule:evenodd;fill:#599e14;fill-rule:evenodd" /><path
       d="m 253.556,356.067 c 0,-0.58 0.064,-1.145 0.184,-1.688 0.771,-3.503 3.895,-6.125 7.629,-6.125 4.314,0 7.812,3.498 7.812,7.813 0,4.314 -3.498,7.812 -7.812,7.812 -1.498,0 -2.897,-0.422 -4.086,-1.153 l -9.135,5.495 0,59.819 38.26,23.011 -1.208,7.68 -42.514,-25.57 c -1.126,-0.674 -1.752,-1.867 -1.753,-3.091 l -0.011,0 0,-63.878 c 0,-1.419 0.819,-2.647 2.01,-3.238 l 10.641,-6.4 c -0.011,-0.161 -0.017,-0.324 -0.017,-0.487 l 0,0 z m 81.815,-1.688 c 0.472,0.41 0.771,1.014 0.771,1.688 0,1.234 -1.001,2.234 -2.235,2.234 -1.233,0 -2.234,-1 -2.234,-2.234 0,-0.674 0.299,-1.279 0.771,-1.688 0.393,-0.34 0.904,-0.546 1.464,-0.546 0.559,0 1.071,0.206 1.463,0.546 l 0,0 z m -75.467,0 c -0.472,0.41 -0.771,1.014 -0.771,1.688 0,1.234 1,2.234 2.235,2.234 1.234,0 2.234,-1 2.234,-2.234 0,-0.674 -0.298,-1.279 -0.77,-1.688 -0.392,-0.34 -0.904,-0.546 -1.464,-0.546 -0.559,0 -1.071,0.206 -1.464,0.546 l 0,0 z m 81.815,1.688 c 0,-0.58 -0.063,-1.145 -0.183,-1.688 -0.772,-3.503 -3.895,-6.125 -7.63,-6.125 -4.314,0 -7.812,3.498 -7.812,7.813 0,4.314 3.498,7.812 7.812,7.812 1.498,0 2.896,-0.422 4.086,-1.153 l 9.136,5.495 0,59.819 -38.26,23.011 1.207,7.68 42.27,-25.423 c 1.19,-0.591 2.009,-1.819 2.009,-3.238 l 0,-63.878 -0.011,0 c -0.001,-1.224 -0.627,-2.417 -1.753,-3.091 l -10.887,-6.547 c 0.011,-0.161 0.016,-0.324 0.016,-0.487 z"
       id="path4261"
       style="clip-rule:evenodd;fill:#a4b730;fill-rule:evenodd" /><path
       d="m 314.523,334.485 0,22.617 4.492,2.702 19.528,11.746 c 1.127,0.674 1.752,1.867 1.754,3.091 l 0.011,0 0,23.492 0,23.492 c 0,1.419 -0.818,2.647 -2.009,3.238 l -19.284,11.599 -6.794,4.085 c -1.707,1.021 -3.918,0.466 -4.939,-1.241 -0.217,-0.362 -0.362,-0.747 -0.441,-1.139 l -0.047,-0.303 -1.052,-6.685 -1.583,-10.072 -0.658,-4.186 c -0.148,-0.958 0.095,-1.886 0.613,-2.621 l -0.007,-0.004 11.881,-16.83 -18.351,-25.995 -18.352,25.995 11.881,16.83 c 0.607,0.864 0.783,1.902 0.57,2.858 l -0.458,2.913 -2.821,17.944 c -0.306,1.962 -2.144,3.307 -4.106,3.003 -0.474,-0.073 -0.911,-0.235 -1.298,-0.468 l -10e-4,0.002 -6.793,-4.086 -19.529,-11.746 c -1.126,-0.674 -1.752,-1.867 -1.753,-3.091 l -0.011,0 0,-23.492 0,-23.493 c 0,-1.419 0.819,-2.647 2.01,-3.238 l 19.284,-11.598 4.493,-2.702 0,-22.617 c -2.269,-1.186 -3.883,-3.453 -4.158,-6.116 -0.028,-0.267 -0.042,-0.538 -0.042,-0.812 0,-0.664 0.084,-1.31 0.24,-1.926 0.858,-3.383 3.923,-5.887 7.573,-5.887 3.65,0 6.715,2.503 7.573,5.887 0.156,0.616 0.239,1.262 0.239,1.926 0,0.274 -0.014,0.545 -0.042,0.812 -0.274,2.664 -1.889,4.93 -4.157,6.116 l 0,24.646 -0.011,0 c -0.001,1.224 -0.626,2.417 -1.753,3.091 l -6.257,3.763 -17.765,10.685 0,21.461 0,21.461 17.765,10.686 2.22,1.335 2.256,-14.351 -12.463,-17.654 c -0.897,-1.215 -0.965,-2.916 -0.048,-4.218 l 22.726,-32.192 c 0.239,-0.354 0.545,-0.67 0.915,-0.93 1.629,-1.146 3.878,-0.754 5.024,0.875 l 22.718,32.178 c 0.897,1.215 0.965,2.916 0.048,4.218 l -12.512,17.724 2.257,14.351 2.22,-1.335 17.765,-10.686 0,-21.461 0,-21.462 -17.765,-10.685 -6.011,-3.615 c -1.191,-0.591 -2.01,-1.819 -2.01,-3.239 l 0,-24.646 c -2.269,-1.186 -3.883,-3.453 -4.157,-6.116 -0.028,-0.267 -0.042,-0.538 -0.042,-0.812 0,-0.664 0.084,-1.31 0.239,-1.926 0.858,-3.383 3.924,-5.887 7.573,-5.887 3.65,0 6.715,2.503 7.572,5.887 0.156,0.616 0.24,1.262 0.24,1.926 0,0.274 -0.014,0.545 -0.042,0.812 -0.275,2.663 -1.889,4.93 -4.158,6.116 l 0,0 z m -5.696,-6.116 c 0.325,0.833 1.136,1.423 2.083,1.423 0.947,0 1.757,-0.59 2.082,-1.423 0.099,-0.251 0.152,-0.525 0.152,-0.812 0,-0.82 -0.442,-1.537 -1.102,-1.926 -0.332,-0.196 -0.72,-0.309 -1.133,-0.309 -0.414,0 -0.802,0.112 -1.134,0.309 -0.658,0.389 -1.101,1.105 -1.101,1.926 0.002,0.287 0.055,0.56 0.153,0.812 l 0,0 z m -26.544,0 c 0.325,0.833 1.135,1.423 2.083,1.423 0.948,0 1.758,-0.59 2.083,-1.423 0.098,-0.251 0.152,-0.525 0.152,-0.812 0,-0.82 -0.442,-1.537 -1.101,-1.926 -0.333,-0.196 -0.72,-0.309 -1.133,-0.309 -0.414,0 -0.801,0.112 -1.133,0.309 -0.659,0.389 -1.102,1.105 -1.102,1.926 -0.002,0.287 0.053,0.56 0.151,0.812 z"
       id="path4263"
       style="clip-rule:evenodd;fill:#d9c843;fill-rule:evenodd" /></g></svg>